PathFileType	4	(x/y/z)	S04_P20_T04.trc
DataRate	CameraRate	NumFrames	NumMarkers	Units	OrigDataRate	OrigDataStartFrame	OrigNumFrames
240	240	7	51	mm	240	1	358
Frame#	Time	Sternum			R.Acromium			L.Acromium			Top.Head			R.ASIS			L.ASIS			R.PSIS			L.PSIS			R.Great.Tro			L.Great.Tro			R.Iliac.Crest			L.Iliac.Crest			V.Sacral			R.Thigh.Upper.Post			R.Thigh.Lower.Ant			R.Thigh.Lower.Post			R.Thigh.Upper.Ant			R.Knee.Lat			R.Knee.Med			R.Shank.Upper.Post			R.Shank.Lower.Ant			R.Shank.Lower.Post			R.Shank.Upper.Ant			R.Ankle.Lat			R.Ankle.Med			R.Heel.Upper			R.Heel.Med			R.Heel.Lat			R.Toe.Lat			R.Toe.Med			R.Toe.Tip			L.Thigh.Upper.Post			L.Thigh.Lower.Ant			L.Thigh.Lower.Post			L.Thigh.Upper.Ant			L.Knee.Lat			L.Knee.Med			L.Shank.Upper.Post			L.Shank.Lower.Ant			L.Shank.Lower.Post			L.Shank.Upper.Ant			L.Ankle.Lat			L.Ankle.Med			L.Heel.Upper			L.Heel.Med			L.Heel.Lat			L.Toe.Lat			L.Toe.Med			L.Toe.Tip			Cervical.Spine			Back			
		X1	Y1	Z1	X2	Y2	Z2	X3	Y3	Z3	X4	Y4	Z4	X5	Y5	Z5	X6	Y6	Z6	X7	Y7	Z7	X8	Y8	Z8	X9	Y9	Z9	X10	Y10	Z10	X11	Y11	Z11	X12	Y12	Z12	X13	Y13	Z13	X14	Y14	Z14	X15	Y15	Z15	X16	Y16	Z16	X17	Y17	Z17	X18	Y18	Z18	X19	Y19	Z19	X20	Y20	Z20	X21	Y21	Z21	X22	Y22	Z22	X23	Y23	Z23	X24	Y24	Z24	X25	Y25	Z25	X26	Y26	Z26	X27	Y27	Z27	X28	Y28	Z28	X29	Y29	Z29	X30	Y30	Z30	X31	Y31	Z31	X32	Y32	Z32	X33	Y33	Z33	X34	Y34	Z34	X35	Y35	Z35	X36	Y36	Z36	X37	Y37	Z37	X38	Y38	Z38	X39	Y39	Z39	X40	Y40	Z40	X41	Y41	Z41	X42	Y42	Z42	X43	Y43	Z43	X44	Y44	Z44	X45	Y45	Z45	X46	Y46	Z46	X47	Y47	Z47	X48	Y48	Z48	X49	Y49	Z49	X50	Y50	Z50	X51	Y51	Z51	

1	0	NaN	NaN	NaN	-1449.2	1503	477.88	-1515.9	1496.4	134.75	-1372.8	1818.9	278.98	NaN	NaN	NaN	NaN	NaN	NaN	-1634	1032.9	339.43	-1625.7	1034.2	257.29	-1517	918.19	496.92	-1528.8	925.83	116.12	-1494.4	1086.7	477.26	-1530.6	1095.7	143.08	-1651.1	991.6	299.91	-1562.6	668.79	483.09	NaN	NaN	NaN	-1573.6	578.54	469.71	NaN	NaN	NaN	-1559.7	502.45	461.64	-1589.5	504.97	326.8	-1686.8	298.55	451.98	NaN	NaN	NaN	-1703.4	231.66	436.05	NaN	NaN	NaN	-1719.2	118.92	415.41	-1692.3	126.64	327.41	-1783.2	87.004	361.87	-1773.4	54.474	333.38	-1781.8	56.53	396.93	-1612.7	43.788	449.13	-1571.9	43.112	330.53	-1510.2	57.031	379.15	-1463.7	687.82	127.57	-1352.2	626.74	123.14	-1421	608.54	140.17	-1407	705.92	106.57	-1349.7	537.5	140.56	-1330.4	527.75	265.21	-1376.3	342.05	146.98	-1283.6	282.06	137.43	-1346	270.21	152.64	-1314.8	352.07	131.25	-1246.2	126.34	154.47	-1237.2	141.71	246.31	-1303.8	70.513	208.93	-1286.6	51.677	241.57	-1292.3	45.661	181.52	-1121.8	99.424	126.6	-1086.6	124.73	236.34	-1042	153.16	182.69	-1528.6	1560.4	318.95	-1632.5	1306.9	310.5
2	0.0041667	NaN	NaN	NaN	-1444.8	1502.6	477.44	-1511.6	1495.8	134.31	-1368.3	1818.4	278.38	NaN	NaN	NaN	NaN	NaN	NaN	-1629	1032.3	339.07	-1620.7	1033.6	256.92	-1512.2	917.59	496.66	-1523.7	925.26	115.84	-1489.7	1086.2	477.01	-1525.7	1095	142.72	-1646.1	990.96	299.53	-1558.1	668.26	482.8	NaN	NaN	NaN	-1569.5	578.11	469.4	NaN	NaN	NaN	-1557	502.27	461.33	-1585.5	504.67	326.49	-1684.6	299.06	451.7	NaN	NaN	NaN	-1701.7	232.32	435.78	NaN	NaN	NaN	-1718.5	119.59	415.16	-1691.7	127.32	327.21	-1782.8	88.051	361.59	-1773.1	55.476	333.12	-1781.5	57.567	396.65	-1612.7	43.841	449.05	-1571.7	43.013	330.51	-1509.9	56.499	379.14	-1459.4	687.14	127.41	-1348	625.76	123.13	-1416.9	607.79	140.14	-1402.2	704.9	106.53	-1345.6	536.57	140.63	-1326.7	526.82	265.46	-1371.5	340.96	147	-1278.5	281.33	137.52	-1340.9	269.28	152.68	-1310	351.26	131.37	-1240.5	125.83	154.62	-1231.8	141.11	246.5	-1298	69.596	208.87	-1280.7	50.809	241.47	-1286.1	44.897	181.35	-1115.8	99.746	127.09	-1081.1	125.02	236.94	-1036.5	153.92	183.6	-1524.1	1559.8	318.51	-1627.8	1306.2	310.24
3	0.0083333	NaN	NaN	NaN	-1440.2	1502.1	476.96	-1507	1495.1	133.85	-1363.5	1817.8	277.75	NaN	NaN	NaN	NaN	NaN	NaN	-1623.9	1031.6	338.68	-1615.5	1033	256.52	-1507.3	916.97	496.37	-1518.4	924.67	115.54	-1484.7	1085.7	476.74	-1520.5	1094.3	142.35	-1640.9	990.29	299.12	-1553.4	667.71	482.49	NaN	NaN	NaN	-1565.1	577.66	469.07	NaN	NaN	NaN	-1554.1	502.11	461.05	-1581.1	504.33	326.17	-1682.2	299.61	451.42	NaN	NaN	NaN	-1699.9	233.03	435.5	NaN	NaN	NaN	-1717.7	120.32	414.9	-1691.1	128.06	327.01	-1782.3	89.193	361.31	-1772.7	56.574	332.86	-1781.3	58.694	396.37	-1612.7	43.906	448.98	-1571.4	42.916	330.5	-1509.5	55.951	379.13	-1454.9	686.44	127.25	-1343.6	624.76	123.15	-1412.5	607.02	140.11	-1397.2	703.85	106.49	-1341.3	535.61	140.71	-1322.8	525.86	265.71	-1366.5	339.86	147.03	-1273.4	280.55	137.64	-1335.7	268.31	152.74	-1305	350.4	131.52	-1234.7	125.26	154.81	-1226.4	140.43	246.73	-1292.1	68.657	208.82	-1274.7	49.906	241.39	-1280	44.104	181.2	-1109.9	99.962	127.62	-1075.6	125.17	237.59	-1031	154.53	184.57	-1519.3	1559.2	318.03	-1622.9	1305.5	309.96
4	0.0125	NaN	NaN	NaN	-1435.4	1501.6	476.46	-1502.3	1494.4	133.36	-1358.6	1817.2	277.09	NaN	NaN	NaN	NaN	NaN	NaN	-1618.6	1030.9	338.26	-1610.1	1032.3	256.09	-1502.1	916.34	496.07	-1512.9	924.06	115.23	-1479.6	1085.1	476.45	-1515.2	1093.5	141.95	-1635.5	989.61	298.67	-1548.4	667.12	482.16	NaN	NaN	NaN	-1560.5	577.18	468.74	NaN	NaN	NaN	-1551.2	501.99	460.81	-1576.6	503.97	325.86	-1679.7	300.19	451.15	NaN	NaN	NaN	-1698	233.78	435.23	NaN	NaN	NaN	-1716.9	121.1	414.66	-1690.5	128.85	326.83	-1781.8	90.435	361.05	-1772.4	57.774	332.61	-1781	59.917	396.09	-1612.7	43.986	448.91	-1571.2	42.821	330.49	-1509.1	55.392	379.12	-1450.2	685.73	127.08	-1338.9	623.74	123.18	-1408	606.24	140.09	-1391.9	702.79	106.46	-1336.8	534.64	140.79	-1318.7	524.9	265.97	-1361.4	338.74	147.06	-1268.2	279.71	137.79	-1330.5	267.32	152.8	-1299.9	349.51	131.7	-1229	124.62	155.02	-1221	139.69	246.99	-1286.3	67.708	208.79	-1268.8	48.976	241.33	-1273.9	43.292	181.07	-1104	100.05	128.2	-1070.1	125.16	238.29	-1025.5	154.97	185.6	-1514.5	1558.6	317.53	-1617.8	1304.7	309.66
5	0.016667	-1346.4	1266.5	281.22	-1430.5	1501.1	475.94	-1497.4	1493.6	132.85	-1353.5	1816.6	276.42	NaN	NaN	NaN	NaN	NaN	NaN	-1613.1	1030.2	337.82	-1604.5	1031.7	255.63	-1496.8	915.7	495.75	-1507.3	923.44	114.91	-1474.3	1084.5	476.14	-1509.7	1092.7	141.53	-1629.9	988.92	298.2	-1543.2	666.51	481.82	NaN	NaN	NaN	-1555.7	576.7	468.39	NaN	NaN	NaN	-1548.2	501.9	460.62	-1571.8	503.58	325.55	-1677.1	300.82	450.89	NaN	NaN	NaN	-1696	234.59	434.98	NaN	NaN	NaN	-1716	121.94	414.42	-1689.8	129.7	326.68	-1781.2	91.786	360.81	-1772	59.087	332.36	-1780.7	61.245	395.84	-1612.8	44.084	448.85	-1571	42.732	330.48	-1508.7	54.829	379.1	-1445.3	685.01	126.91	-1334.1	622.72	123.23	-1403.3	605.45	140.06	-1386.5	701.73	106.45	-1332.1	533.65	140.88	-1314.5	523.93	266.23	-1356.3	337.63	147.09	-1262.9	278.8	137.97	-1325.2	266.3	152.87	-1294.8	348.57	131.9	-1223.3	123.91	155.27	-1215.7	138.86	247.29	-1280.6	66.76	208.78	-1263.1	48.027	241.3	-1268	42.468	180.98	-1098.2	99.971	128.83	-1064.8	124.96	239.05	-1020.1	155.18	186.68	-1509.5	1558	317.01	-1612.6	1303.9	309.33
6	0.020833	-1341.6	1266	280.65	-1425.5	1500.6	475.38	-1492.5	1492.9	132.31	-1348.3	1816	275.73	NaN	NaN	NaN	NaN	NaN	NaN	-1607.5	1029.5	337.35	-1598.9	1031	255.14	-1491.4	915.05	495.42	-1501.5	922.81	114.58	-1468.9	1083.9	475.81	-1504.1	1092	141.09	-1624.2	988.22	297.7	-1537.8	665.87	481.47	NaN	NaN	NaN	-1550.7	576.19	468.03	NaN	NaN	NaN	-1545.2	501.85	460.49	-1566.9	503.16	325.26	-1674.3	301.48	450.65	NaN	NaN	NaN	-1693.9	235.45	434.74	NaN	NaN	NaN	-1715	122.85	414.21	-1689	130.63	326.55	-1780.6	93.256	360.59	-1771.6	60.522	332.14	-1780.4	62.685	395.6	-1612.8	44.201	448.8	-1570.8	42.65	330.47	-1508.4	54.264	379.09	-1440.2	684.3	126.73	-1329.1	621.71	123.3	-1398.5	604.67	140.03	-1381	700.69	106.44	-1327.3	532.66	140.98	-1310.1	522.97	266.48	-1351.2	336.53	147.12	-1257.7	277.84	138.18	-1320	265.28	152.95	-1289.7	347.6	132.12	-1217.9	123.13	155.56	-1210.6	137.95	247.62	-1275.2	65.826	208.8	-1257.7	47.071	241.31	-1262.3	41.643	180.91	-1092.6	99.716	129.52	-1059.6	124.55	239.87	-1014.9	155.14	187.81	-1504.4	1557.4	316.45	-1607.3	1303.2	308.98
7	0.025	-1336.7	1265.6	280.05	-1420.3	1500.1	474.8	-1487.4	1492.2	131.74	-1343.1	1815.4	275.02	NaN	NaN	NaN	NaN	NaN	NaN	-1601.8	1028.8	336.84	-1593.1	1030.3	254.62	-1485.8	914.4	495.07	-1495.5	922.18	114.23	-1463.3	1083.3	475.45	-1498.4	1091.2	140.63	-1618.4	987.53	297.16	-1532.2	665.21	481.1	NaN	NaN	NaN	-1545.6	575.67	467.67	NaN	NaN	NaN	-1542.1	501.86	460.43	-1561.7	502.71	324.98	-1671.4	302.19	450.42	NaN	NaN	NaN	-1691.7	236.37	434.52	NaN	NaN	NaN	-1714	123.84	414.01	-1688.2	131.62	326.45	-1780	94.852	360.4	-1771.2	62.091	331.93	-1780	64.248	395.38	-1612.9	44.342	448.76	-1570.6	42.577	330.47	-1508	53.703	379.08	-1435	683.59	126.56	-1324	620.72	123.4	-1393.5	603.9	140	-1375.3	699.66	106.45	-1322.3	531.68	141.09	-1305.6	522.03	266.72	-1346.1	335.46	147.15	-1252.6	276.81	138.43	-1315	264.24	153.04	-1284.5	346.6	132.38	-1212.7	122.27	155.88	-1205.7	136.97	247.99	-1270	64.92	208.84	-1252.5	46.119	241.34	-1257	40.826	180.88	-1087.2	99.266	130.27	-1054.7	123.9	240.74	-1009.9	154.81	188.98	-1499.2	1556.8	315.88	-1601.9	1302.4	308.59
